<svg width="29" height="29" viewBox="0 0 29 29" fill="none" xmlns="http://www.w3.org/2000/svg">
<path opacity="0.4" d="M24.7708 12.3129H21.2788C18.415 12.3129 16.0829 9.98085 16.0829 7.1171V3.62502C16.0829 2.96044 15.5392 2.41669 14.8746 2.41669H9.75126C6.02959 2.41669 3.02084 4.83335 3.02084 9.1471V19.8529C3.02084 24.1667 6.02959 26.5834 9.75126 26.5834H19.2488C22.9704 26.5834 25.9792 24.1667 25.9792 19.8529V13.5213C25.9792 12.8567 25.4354 12.3129 24.7708 12.3129Z" fill="white"/>
<path d="M19.0917 2.67039C18.5963 2.17497 17.7383 2.5133 17.7383 3.20205V7.41914C17.7383 9.1833 19.2367 10.6454 21.0613 10.6454C22.2092 10.6575 23.8042 10.6575 25.1696 10.6575C25.8583 10.6575 26.2208 9.84789 25.7375 9.36455C23.9975 7.61247 20.88 4.45872 19.0917 2.67039Z" fill="white"/>
<path d="M16.3125 16.6146H9.0625C8.56708 16.6146 8.15625 16.2037 8.15625 15.7083C8.15625 15.2129 8.56708 14.8021 9.0625 14.8021H16.3125C16.8079 14.8021 17.2188 15.2129 17.2188 15.7083C17.2188 16.2037 16.8079 16.6146 16.3125 16.6146Z" fill="white"/>
<path d="M13.8958 21.4479H9.0625C8.56708 21.4479 8.15625 21.0371 8.15625 20.5417C8.15625 20.0463 8.56708 19.6354 9.0625 19.6354H13.8958C14.3912 19.6354 14.8021 20.0463 14.8021 20.5417C14.8021 21.0371 14.3912 21.4479 13.8958 21.4479Z" fill="white"/>
</svg>
